name rise30.6535peak61.5555fall82.9339.mot
datacolumns 19
datarows 11
range 19.32825700000000 19.34492600000000
endheader
time	ground_force1_vx	ground_force1_vy	ground_force1_vz	ground_force1_px	ground_force1_py	ground_force1_pz	ground_force2_vx	ground_force2_vy	ground_force2_vz	ground_force2_px	ground_force2_py	ground_force2_pz	ground_torque1_x	ground_torque1_y	ground_torque1_z	ground_torque2_x	ground_torque2_y	ground_torque2_z	
19.32825700000000	-4.57778800000000	46.39293200000000	-9.23670000000000	0.26630000000000	0.00000000000000	0.10424100000000	-39.39892500000000	793.27571499999999	-54.25737800000000	0.16691000000000	0.00000000000000	-0.06906800000000	0.00000000000000	-6.30580100000000	0.00000000000000	0.00000000000000	-21.57690700000000	0.00000000000000	
19.32992000000000	-4.82460500000000	53.26590700000000	-10.15562500000000	0.27768600000000	0.00000000000000	0.10555900000000	-39.95973000000000	790.77034500000002	-53.87691500000000	0.16610200000000	0.00000000000000	-0.06896500000000	0.00000000000000	-7.07654700000000	0.00000000000000	0.00000000000000	-21.44651000000000	0.00000000000000	
19.33158700000000	-4.95700800000000	60.13285200000000	-10.95638100000000	0.28805200000000	0.00000000000000	0.10675600000000	-40.54292200000000	788.14757299999997	-53.47864400000000	0.16529400000000	0.00000000000000	-0.06885900000000	0.00000000000000	-7.78449300000000	0.00000000000000	0.00000000000000	-21.31651500000000	0.00000000000000	
19.33325200000000	-4.96655000000000	66.92784000000000	-11.62436200000000	0.29754000000000	0.00000000000000	0.10784700000000	-41.14825100000000	785.40515900000003	-53.06256900000000	0.16448900000000	0.00000000000000	-0.06875000000000	0.00000000000000	-8.41588100000000	0.00000000000000	0.00000000000000	-21.18697500000000	0.00000000000000	
19.33492400000000	-4.84974700000000	73.60892900000000	-12.15242300000000	0.30626500000000	0.00000000000000	0.10884800000000	-41.77535700000000	782.54079999999999	-52.62869900000000	0.16368600000000	0.00000000000000	-0.06863800000000	0.00000000000000	-8.96232500000000	0.00000000000000	0.00000000000000	-21.05792800000000	0.00000000000000	
19.33658400000000	-4.60762100000000	80.15787100000000	-12.54034700000000	0.31432300000000	0.00000000000000	0.10977000000000	-42.42376900000000	779.55213000000003	-52.17705200000000	0.16288500000000	0.00000000000000	-0.06852200000000	0.00000000000000	-9.42066100000000	0.00000000000000	0.00000000000000	-20.92939600000000	0.00000000000000	
19.33825800000000	-4.24496800000000	86.57791600000000	-12.79383000000000	0.32179100000000	0.00000000000000	0.11062300000000	-43.09289900000000	776.43673100000001	-51.70765400000000	0.16208700000000	0.00000000000000	-0.06840300000000	0.00000000000000	-9.79239200000000	0.00000000000000	0.00000000000000	-20.80138300000000	0.00000000000000	
19.33992100000000	-3.76943800000000	92.89022199999999	-12.92316700000000	0.32873600000000	0.00000000000000	0.11141500000000	-43.78204800000000	773.19213600000000	-51.22054400000000	0.16129300000000	0.00000000000000	-0.06828100000000	0.00000000000000	-10.08283600000000	0.00000000000000	0.00000000000000	-20.67387600000000	0.00000000000000	
19.34159900000000	-3.19056500000000	99.12941400000000	-12.94178300000000	0.33521400000000	0.00000000000000	0.11215300000000	-44.49039700000000	769.81583999999998	-50.71576700000000	0.16050300000000	0.00000000000000	-0.06815600000000	0.00000000000000	-10.30010200000000	0.00000000000000	0.00000000000000	-20.54684500000000	0.00000000000000	
19.34325800000000	-2.51880400000000	105.33880400000000	-12.86476300000000	0.34127100000000	0.00000000000000	0.11284200000000	-45.21701500000000	766.30530399999998	-50.19338300000000	0.15971800000000	0.00000000000000	-0.06802700000000	0.00000000000000	-10.45401400000000	0.00000000000000	0.00000000000000	-20.42024600000000	0.00000000000000	
19.34492600000000	-1.76467300000000	111.56572799999999	-12.70750900000000	0.34694800000000	0.00000000000000	0.11348900000000	-45.96084900000000	762.65796799999998	-49.65346700000000	0.15893700000000	0.00000000000000	-0.06789600000000	0.00000000000000	-10.55507500000000	0.00000000000000	0.00000000000000	-20.29401400000000	0.00000000000000	
